<?xml version="1.0" encoding="UTF-8" standalone="no"?>
<!-- Created with Inkscape (http://www.inkscape.org/) -->

<svg
   width="24"
   height="24"
   viewBox="0 0 24 24"
   version="1.1"
   id="svg1"
   xmlns="http://www.w3.org/2000/svg"
   xmlns:svg="http://www.w3.org/2000/svg">
  <defs
     id="defs1" />
  <path
     id="path1"
     style="color:#000000;fill:#ffffff;stroke-width:1;stroke-linecap:square;stroke-linejoin:round;stroke-miterlimit:11.8;-inkscape-stroke:none;paint-order:stroke fill markers"
     d="M 11.267925,0.00222471 C 11.21086,0.00535658 11.149532,0.0119562 11.081943,0.02120244 10.933429,0.04153266 10.645908,0.09590677 10.366482,0.29827732 10.093106,0.4962674 9.9273308,0.7594403 9.8218211,0.99286222 9.6191487,1.441236 9.5226823,1.9367707 9.3777422,2.7881555 9.3087387,3.1934868 9.3517375,3.573981 9.4137999,3.9438994 8.6727848,4.3298347 7.995988,4.8203508 7.4818669,5.4526291 7.2800342,5.7008476 7.2138097,5.8987925 7.145961,6.0694053 7.067238,6.2673608 6.9903279,6.4943144 6.9087394,6.7563991 6.7454141,7.2810387 6.5650153,7.9502686 6.3773629,8.7281854 6.0020357,10.284118 5.5997713,12.268021 5.2994278,14.267785 4.9991444,16.26715 4.7962963,18.273848 4.8420645,19.93074 c 0.022848,0.827037 0.103064,1.572484 0.3093371,2.235577 0.2066793,0.664404 0.6001092,1.389903 1.4005564,1.690916 0.7997358,0.300759 1.6149687,0.08615 2.2735323,-0.271382 0.652401,-0.354181 1.2499567,-0.872153 1.8465327,-1.493547 1.195045,-1.244758 2.393899,-2.944504 3.501392,-4.729251 1.107768,-1.785193 2.113687,-3.65129 2.861842,-5.209387 0.374028,-0.778948 0.684829,-1.479404 0.912829,-2.066675 C 18.172149,9.5098608 18.337887,9.0735745 18.376982,8.564977 18.44082,7.7344539 18.109076,7.010828 17.6805,6.3312979 17.973162,6.0619156 18.252953,5.7796013 18.439609,5.4962778 18.69132,5.1142068 18.867214,4.7410635 18.98427,4.4202405 19.042278,4.2612394 19.089162,4.111146 19.120909,3.955286 c 0.01531,-0.075172 0.02901,-0.1659789 0.03416,-0.2751771 10e-5,-0.00213 0.01633,-0.08992 0.0057,-0.2068572 -0.01068,-0.1169371 -0.049,-0.2504835 -0.127152,-0.409919 -0.06639,-0.1352478 -0.209867,-0.3926405 -0.489668,-0.594003 -0.27375,-0.1970113 -0.574308,-0.2712029 -0.829327,-0.2979504 -0.265875,-0.027887 -0.573281,0.027329 -0.872975,0.066422 0.0016,-0.066392 0.0093,-0.1259074 0.0057,-0.1935729 -0.01506,-0.2801841 -0.05081,-0.5287221 -0.100582,-0.7477226 -0.02419,-0.1064463 -0.05226,-0.2166567 -0.09868,-0.33590575 0.01293,0.0332225 0.0018,-0.0674015 -0.06832,-0.20306173 C 16.509677,0.62187827 16.390205,0.4968839 16.192645,0.35710828 16.070867,0.27097999 15.823225,0.1136886 15.48098,0.07054454 15.145767,0.02828661 14.844585,0.10686995 14.608005,0.20528643 14.155054,0.39371183 13.745887,0.68981912 13.063218,1.2092084 13.004189,1.130891 12.956933,1.0554654 12.886724,0.98147563 12.652215,0.73433325 12.422093,0.53704957 12.20922,0.3836771 12.104453,0.30819268 11.999281,0.23811705 11.87711,0.17492206 c 0.06756,0.0349462 -0.151481,-0.15586584 -0.449773,-0.17269735 -0.04955,-0.002795949 -0.102349,-0.003131861 -0.159412,0 z m -0.03796,1.52201399 c 0.03033,0.01774 0.06116,0.036346 0.108173,0.070218 0.12705,0.091523 0.296255,0.233952 0.466852,0.4137145 0.341195,0.3595251 0.681796,0.863688 0.779984,1.3834766 a 0.34011494,0.34011494 0 0 0 0.658528,0.041751 c 0.123422,-0.3864383 0.352184,-0.7559368 0.715461,-1.0323886 0.66027,-0.5024638 1.041805,-0.7428977 1.222166,-0.8179402 0.07485,-0.031142 0.08686,-0.02661 0.09299,-0.026569 0.0067,0.022421 0.01146,0.037074 0.01898,0.070218 0.02686,0.1183157 0.05368,0.2944357 0.06453,0.4972165 0.0217,0.4055614 -0.01964,0.9201776 -0.191675,1.362601 a 0.34011494,0.34011494 0 0 0 0.449764,0.4364878 c 0.149222,-0.063 0.30772,-0.1087695 0.47824,-0.1347419 0.820286,-0.1249453 1.270603,-0.1532418 1.46508,-0.1328441 0.07981,0.00838 0.08907,0.01772 0.09489,0.020875 -0.01237,0.055965 -0.03436,0.1351527 -0.07021,0.2334261 -0.07753,0.2125227 -0.209273,0.4937781 -0.389044,0.7667003 -0.35954,0.5458445 -0.890065,1.0364109 -1.578947,1.0760374 -0.677937,0.038997 -1.05833,0.025335 -1.214575,-0.00569 -0.04208,-0.00836 -0.02904,-0.00387 -0.03796,-0.00759 -0.02995,-0.1579128 -0.01058,-0.3974891 0.09868,-0.6585298 a 0.34011494,0.34011494 0 0 0 -0.48203,-0.4270008 c -0.340615,0.1940236 -0.535981,0.269045 -0.609185,0.284666 -0.09096,-0.1122741 -0.178058,-0.2943599 -0.214449,-0.535172 a 0.34011494,0.34011494 0 0 0 -0.662323,-0.041751 c -0.151342,0.5356441 -0.27061,0.8232818 -0.334008,0.9242155 -0.0055,0.0088 2.91e-4,-1.69e-5 -0.0038,0.00569 C 11.905923,5.2578703 11.505195,5.0216424 11.218578,4.6119159 10.924534,4.191573 10.745381,3.6333102 10.846615,3.0386621 c 0.13925,-0.8179648 0.253553,-1.2548946 0.334008,-1.4328187 0.03265,-0.072205 0.04426,-0.076783 0.04934,-0.081604 z M 9.9337898,5.361536 c 0.021986,0.033801 0.039677,0.071568 0.062626,0.1043774 0.4784512,0.6840073 1.1551392,1.244788 2.0476972,1.3265434 0.194648,0.017831 0.487797,0.0064 0.789474,-0.1518218 0.131012,-0.068714 0.173594,-0.1498392 0.250505,-0.2334261 0.07047,0.1537341 0.101532,0.3031146 0.267587,0.4478744 0.255217,0.2224883 0.538526,0.3110853 0.759109,0.3548836 0.434728,0.086317 0.875367,0.073391 1.590335,0.032262 0.242194,-0.013931 0.449783,-0.090449 0.66422,-0.1537196 0.311389,0.541396 0.545517,1.1026829 0.525683,1.3607033 -0.01078,0.14023 -0.126242,0.5617548 -0.334008,1.0969129 -0.207766,0.5351585 -0.503706,1.2071595 -0.865385,1.9604005 -0.723357,1.506478 -1.708815,3.338082 -2.784033,5.07085 -1.075217,1.732767 -2.244523,3.369137 -3.311614,4.480642 C 9.062441,21.613769 8.5542042,22.036437 8.1157231,22.27449 7.6772421,22.512543 7.3382959,22.561108 7.0757434,22.462369 6.898353,22.395658 6.714286,22.170868 6.5747313,21.722238 6.4351768,21.27361 6.3544028,20.638107 6.3337142,19.88899 6.292337,18.390751 6.4812043,16.437348 6.7739976,14.487927 7.0667908,12.538506 7.4628298,10.590004 7.8272616,9.0792734 8.0094775,8.3239082 8.1834765,7.6777878 8.3320693,7.2004781 8.4063656,6.9618231 8.4744675,6.7646557 8.5313354,6.6216573 8.5882034,6.4786589 8.6503589,6.3786826 8.6395085,6.3920267 8.9885945,5.9627131 9.4484834,5.642465 9.9337898,5.361536 Z" />
</svg>
